<svg width="54" height="54" viewBox="0 0 54 54" fill="none" xmlns="http://www.w3.org/2000/svg">
<path d="M33.1425 5.50132C31.7082 5.08789 30.2147 5.9232 29.8013 7.35757L19.0013 45.1576C18.5879 46.592 19.4232 48.0854 20.8575 48.4988C22.2919 48.9123 23.7854 48.077 24.1988 46.6426L34.9988 8.84258C35.4122 7.4082 34.5769 5.91476 33.1425 5.50132ZM38.5932 16.9848C37.5385 18.0394 37.5385 19.7523 38.5932 20.807L44.7863 27.0001L38.5932 33.1932C37.5385 34.2479 37.5385 35.9607 38.5932 37.0154C39.6479 38.0701 41.3607 38.0701 42.4154 37.0154L50.5154 28.9154C51.57 27.8607 51.57 26.1479 50.5154 25.0932L42.4154 16.9932C41.3607 15.9385 39.6479 15.9385 38.5932 16.9932V16.9848ZM15.4154 16.9848C14.3607 15.9301 12.6479 15.9301 11.5932 16.9848L3.49316 25.0848C2.43848 26.1394 2.43848 27.8523 3.49316 28.907L11.5932 37.007C12.6479 38.0616 14.3607 38.0616 15.4154 37.007C16.47 35.9523 16.47 34.2395 15.4154 33.1848L9.22223 27.0001L15.4069 20.807C16.4616 19.7523 16.4616 18.0394 15.4069 16.9848H15.4154Z" fill="#9C9C9C"/>
</svg>
