<svg width="52" height="52" viewBox="0 0 52 52" fill="none" xmlns="http://www.w3.org/2000/svg">
<g clip-path="url(#clip0_363_5939)">
<path d="M27.0373 9.50623L29.4645 13.5637L31.8664 9.50623H34.2308V18.4278H32.181V12.5179L29.8544 16.3989H28.9993L26.6474 12.5179V18.4278H24.5977V9.50623H27.0373ZM42.3842 9.50623V11.3838H37.8947V13.0975H41.7052V14.9246H37.8947V16.5752H42.3842V18.4278H35.8447V9.50623H42.3842ZM45.9636 9.50623L49.9503 15.0256V9.50623H52.0001V18.4278H50.0759L46.0516 12.9462V18.4278H44.0018V9.50623H45.9636ZM26.6474 30.1496H24.5977V21.228H26.6474V30.1496ZM30.2486 21.228L34.2353 26.7473V21.228H36.2851V30.1496H34.3609L30.3366 24.668V30.1496H28.2868V21.228H30.2486ZM24.5977 41.8713V32.9498H27.9807C28.6764 32.9498 29.301 33.0464 29.8544 33.2398C30.4161 33.4245 30.8898 33.7058 31.2754 34.0839C31.6694 34.4619 31.9713 34.9281 32.181 35.4827C32.3906 36.037 32.4954 36.6797 32.4954 37.4106C32.4954 38.8806 32.1097 39.9937 31.3382 40.7498C30.5754 41.4975 29.473 41.8713 28.0309 41.8713H24.5977ZM28.056 40.019C28.4836 40.019 28.8442 39.9601 29.1376 39.8425C29.4394 39.7165 29.6825 39.5401 29.8669 39.3134C30.0597 39.0864 30.198 38.8134 30.282 38.4944C30.3658 38.175 30.4076 37.818 30.4076 37.4233C30.4076 36.5663 30.2065 35.9194 29.8041 35.4827C29.4101 35.0458 28.7939 34.8274 27.9554 34.8274H26.6474V40.019H28.056ZM40.4216 32.9498V34.8274H35.9321V36.5412H39.7426V38.3683H35.9321V40.019H40.4216V41.8713H33.8821V32.9498H40.4216ZM48.0714 32.9498H50.2973L46.8264 41.8713H44.7639L41.3056 32.9498H43.5567L45.8456 39.3007L48.0714 32.9498Z" fill="#C4B8F8"/>
<path fill-rule="evenodd" clip-rule="evenodd" d="M21.5767 9.50623V29.7344L14.1597 41.8713H6.06846L1.91645 33.1058H4.1546L7.3486 39.8485H13.0254L19.5539 29.1652V23.144L16.501 18.946L4.46552 18.9454L3.04642 22.3174H0.851849L2.69709 17.9347L0.674273 9.50623H21.5767ZM21.5767 33.6128V41.8713H16.5304L17.7663 39.8479L19.5539 39.8485V36.9229L21.5767 33.6128ZM16.8568 24.3402V28.3859L15.2081 31.083H9.43982L7.417 29.0601H5.39418L4.04564 31.083H0.957575L0 29.0601V24.3402H16.8568ZM19.5539 11.529H3.23996L4.5337 16.9226L17.5311 16.9232L19.5539 19.7045V11.529Z" fill="#C4B8F8"/>
</g>
<defs>
<clipPath id="clip0_363_5939">
<rect width="51.9999" height="32.3651" fill="white" transform="translate(0 9.50623)"/>
</clipPath>
</defs>
</svg>

