<svg width="52" height="52" viewBox="0 0 52 52" fill="none" xmlns="http://www.w3.org/2000/svg">
<g clip-path="url(#clip0_363_5926)">
<path fill-rule="evenodd" clip-rule="evenodd" d="M26 0C32.2478 0 37.9808 2.2022 42.4632 5.876L37.986 9.4562C34.619 7.0122 30.4772 5.5718 25.9974 5.5718C14.7134 5.5718 5.5692 14.7186 5.5692 26C5.5692 37.284 14.716 46.4282 25.9974 46.4282C37.2814 46.4282 46.4256 37.2814 46.4256 26C46.4256 25.74 46.4204 25.48 46.4126 25.22L51.6048 21.4708C51.8648 22.9424 51.9974 24.4556 51.9974 26C51.9974 40.3598 40.3572 52 25.9974 52C11.6376 52 0 40.3598 0 26C0 11.6402 11.6402 0 26 0Z" fill="#AFCE90"/>
<path fill-rule="evenodd" clip-rule="evenodd" d="M16.2188 19.6638L26 26L47.1068 10.53L50.2424 15.6234L26 33.3398L16.2188 27.235V19.6638Z" fill="#AFCE90"/>
</g>
<defs>
<clipPath id="clip0_363_5926">
<rect width="52" height="52" fill="white"/>
</clipPath>
</defs>
</svg>

